<?xml version="1.0" encoding="UTF-8" standalone="no"?>
<!-- Created with Inkscape (http://www.inkscape.org/) -->

<svg
   width="210mm"
   height="297mm"
   viewBox="0 0 210 297"
   version="1.1"
   id="svg5"
   inkscape:version="1.1 (c68e22c387, 2021-05-23)"
   sodipodi:docname="SQUIBS.svg"
   xmlns:inkscape="http://www.inkscape.org/namespaces/inkscape"
   xmlns:sodipodi="http://sodipodi.sourceforge.net/DTD/sodipodi-0.dtd"
   xmlns="http://www.w3.org/2000/svg"
   xmlns:svg="http://www.w3.org/2000/svg">
  <sodipodi:namedview
     id="namedview7"
     pagecolor="#ffffff"
     bordercolor="#999999"
     borderopacity="1"
     inkscape:pageshadow="0"
     inkscape:pageopacity="0"
     inkscape:pagecheckerboard="0"
     inkscape:document-units="mm"
     showgrid="false"
     inkscape:zoom="2.096401"
     inkscape:cx="344.16126"
     inkscape:cy="405.21828"
     inkscape:window-width="1920"
     inkscape:window-height="1017"
     inkscape:window-x="-8"
     inkscape:window-y="-8"
     inkscape:window-maximized="1"
     inkscape:current-layer="layer1" />
  <defs
     id="defs2">
    <rect
       x="221.2659"
       y="334.59721"
       width="12.142641"
       height="89.046033"
       id="rect6595" />
    <rect
       x="225.31345"
       y="296.82011"
       width="269.83646"
       height="141.66414"
       id="rect2367" />
  </defs>
  <g
     inkscape:label="Layer 1"
     inkscape:groupmode="layer"
     id="layer1">
    <rect
       style="fill:#0000ff;fill-rule:evenodd;stroke-width:0.170297"
       id="rect31"
       width="96.608551"
       height="53.718861"
       x="36.410442"
       y="50.607555" />
    <text
       xml:space="preserve"
       transform="matrix(0.66253012,0,0,1.5408032,-114.33445,-415.66128)"
       id="text2365"
       style="font-size:40px;line-height:1.25;font-family:sans-serif;word-spacing:0px;white-space:pre;shape-inside:url(#rect2367)"><tspan
         x="225.3125"
         y="332.21094"
         id="tspan67">SQUIBS</tspan></text>
    <text
       xml:space="preserve"
       transform="scale(0.26458333)"
       id="text6593"
       style="line-height:1.25;font-family:sans-serif;font-size:40px;word-spacing:0px;white-space:pre;shape-inside:url(#rect6595)" />
    <path
       style="fill:#008080;stroke:#000000;stroke-width:2.92473"
       d="m 67.932948,99.987903 -1.71408,-4.338525 1.248171,-2.069326 c 2.817005,-4.67028 4.012487,-12.029449 3.659866,-22.52947 -0.16581,-4.937154 -0.491039,-7.996105 -1.115143,-10.488417 -1.005403,-4.015006 -2.73724,-7.634791 -4.252705,-8.88877 -1.023177,-0.846633 -0.64357,-0.858118 28.360039,-0.858118 29.291204,0 29.393254,0.0034 28.330154,0.88284 -0.58681,0.485562 -1.51959,1.952624 -2.07284,3.260133 -0.87826,2.075616 -1.00785,3.090584 -1.0212,7.99821 -0.0228,8.366185 1.08319,10.706332 6.27186,13.270902 3.12102,1.542605 4.18589,3.571781 4.18589,7.976452 0,4.851262 -1.48178,7.531749 -4.16359,7.531749 -1.81139,0 -2.88514,-0.571259 -4.92017,-2.617634 l -1.60302,-1.611947 v 3.457429 3.45743 l 1.78553,1.242984 c 1.50773,1.04959 2.23497,1.242981 4.67412,1.242981 2.61332,0 3.01346,-0.125843 4.199,-1.320669 0.72073,-0.726365 1.68515,-2.345192 2.14316,-3.597383 l 0.83273,-2.276721 0.0223,7.307194 0.0223,7.307193 H 101.22615 69.647026 Z M 86.216365,95.43298 c 3.154116,-3.317937 3.814574,-8.432689 3.830723,-29.666062 l 0.01105,-14.501969 H 88.6135 87.168882 l -0.215224,16.975174 c -0.231868,18.287932 -0.534682,21.052757 -2.488014,22.716618 -1.380005,1.175497 -3.710905,0.879213 -4.759625,-0.605002 -1.54013,-2.179694 -1.733946,-4.382073 -1.926096,-21.88678 l -0.18881,-17.20001 h -1.495124 -1.495125 l 0.182876,17.874523 c 0.141918,13.870953 0.324416,18.428471 0.814801,20.347725 1.373285,5.37473 3.406576,7.644445 6.848168,7.644445 1.922881,0 2.328684,-0.182854 3.769649,-1.698662 z M 97.325129,73.748622 V 51.264949 h -1.496147 -1.496151 v 22.483673 22.483674 h 1.496151 1.496147 z m 15.223751,21.626587 c 2.35354,-1.509682 3.33668,-4.431253 3.51617,-10.448906 0.17875,-5.992414 -0.569,-9.707639 -2.35288,-11.690446 -0.75759,-0.842064 -0.9196,-1.283864 -0.5572,-1.519468 1.32081,-0.858708 2.25364,-4.454787 2.27257,-8.760847 0.023,-5.220532 -0.69788,-8.137911 -2.5102,-10.159326 l -1.37286,-1.531267 h -4.75858 -4.75858 v 22.483673 22.483674 l 4.59532,-0.0017 c 3.75922,-0.0013 4.83747,-0.156995 5.92624,-0.855405 z"
       id="path7799" />
    <path
       style="fill:#008080;stroke:#000000;stroke-width:2.92473"
       d="m 36.624175,99.310317 c 0,-4.787903 0.03475,-4.983026 0.763722,-4.289049 1.245227,1.185444 3.780725,2.110374 5.785144,2.110374 2.490514,0 4.433878,-1.421574 5.822468,-4.259153 1.025989,-2.096604 1.094022,-2.641876 1.094022,-8.768635 0,-9.13939 -1.007797,-11.42778 -6.257475,-14.208782 -2.368794,-1.254863 -3.121654,-1.907246 -3.604841,-3.123738 -1.27469,-3.209217 -0.352188,-9.502243 1.549923,-10.573096 1.739206,-0.979139 4.443547,-0.20083 6.135426,1.765779 0.447327,0.519959 0.97587,0.945382 1.17454,0.945382 0.19867,0 0.361216,-1.396599 0.361216,-3.103556 0,-3.00968 -0.04203,-3.131865 -1.38928,-4.039485 l -1.389282,-0.935932 6.354945,-0.0077 6.354948,-0.0077 -1.494256,1.739862 c -1.722685,2.005848 -3.107794,5.585081 -4.025153,10.401324 -0.866294,4.548146 -0.866294,17.036178 0,21.584324 1.469571,7.71544 4.066785,12.046506 7.526747,12.551458 1.768886,0.258149 1.839304,0.33516 3.057915,3.344026 0.686035,1.69389 1.247335,3.26213 1.247335,3.48497 0,0.23251 -6.19385,0.40518 -14.534031,0.40518 H 36.624175 Z"
       id="path7838" />
    <path
       style="fill:#008080;stroke:#000000;stroke-width:2.92473"
       d="m 59.695418,90.37278 c -2.232025,-2.513491 -3.401092,-8.227765 -3.401092,-16.624158 0,-11.096985 2.242893,-17.986938 5.855306,-17.986938 3.827853,0 5.817122,6.135544 5.831734,17.986938 0.0095,7.620322 -0.578462,11.794134 -2.095897,14.880941 -1.684654,3.42696 -4.09266,4.105094 -6.190051,1.743217 z"
       id="path7877" />
    <path
       style="fill:#008080;stroke:#000000;stroke-width:2.92473"
       d="m 40.685158,91.213788 c -0.47022,-0.27194 -1.576302,-1.217437 -2.457963,-2.101117 l -1.60302,-1.606689 0.04375,-9.913974 c 0.02409,-5.452686 0.184253,-9.306917 0.355959,-8.564957 0.779572,3.368515 2.190382,5.083519 5.918615,7.194776 3.022724,1.711732 3.92452,3.024812 4.232384,6.162646 0.556522,5.672227 -1.052464,9.363779 -4.069774,9.337413 -0.860759,-0.0074 -1.94974,-0.23617 -2.419959,-0.508098 z"
       id="path7916" />
    <path
       style="fill:#008080;stroke:#000000;stroke-width:2.92473"
       d="m 36.653953,54.749917 -0.02979,-3.93464 h 1.943767 1.943765 l -1.270279,1.686274 c -0.698658,0.927454 -1.559956,2.698041 -1.913993,3.934646 l -0.643706,2.248366 z"
       id="path7955" />
    <path
       style="fill:#008080;stroke:#000000;stroke-width:2.92473"
       d="m 105.44709,63.181295 v -6.520262 h 2.55498 c 2.29543,0 2.63075,0.121656 3.30101,1.197732 0.93637,1.503313 1.30993,4.647195 0.89958,7.5709 -0.42719,3.043605 -1.7619,4.271896 -4.64205,4.271896 h -2.11352 z"
       id="path7994" />
    <path
       style="fill:#008080;stroke:#000000;stroke-width:2.92473"
       d="m 105.44709,82.966928 v -7.869286 h 2.56483 c 1.96618,0 2.7579,0.203109 3.39201,0.870151 2.33431,2.455545 2.33431,11.542729 0,13.998274 -0.63411,0.667048 -1.42583,0.870148 -3.39201,0.870148 h -2.56483 z"
       id="path8033" />
    <path
       style="fill:#008080;stroke:#000000;stroke-width:2.92473"
       d="m 132.05425,76.275412 c -0.69409,-2.72992 -2.24972,-4.494482 -5.59018,-6.341014 -3.2199,-1.779893 -3.82741,-2.558872 -4.19485,-5.378849 -0.38346,-2.942993 0.17681,-5.901908 1.4093,-7.442708 1.56128,-1.951849 3.65462,-1.870836 6.28671,0.243311 l 1.98509,1.594454 v -3.174934 c 0,-3.099398 -0.033,-3.196116 -1.38928,-4.065977 l -1.38928,-0.891059 1.81675,-0.0017 1.81676,-0.0017 v 13.715038 c 0,7.543272 -0.0563,13.715042 -0.12509,13.715042 -0.0688,0 -0.35046,-0.886475 -0.62594,-1.969946 z"
       id="path8072" />
    <path
       style="fill:#008080;stroke:#000000;stroke-width:1.03405"
       d="m 35.326871,100.3294 c 2.64e-4,-5.967346 0.02715,-6.147466 1.0141,-6.795717 l 0.485362,-0.318793 0.0058,-1.754798 0.0058,-1.754794 -0.75567,-0.782963 -0.75567,-0.782967 0.0089,-7.557696 c 0.0048,-4.156736 0.06134,-8.535408 0.125453,-9.730388 0.128906,-2.402465 0.298197,-2.89439 1.105735,-3.213192 0.446268,-0.176173 0.450996,-0.190364 0.356762,-1.069565 -0.125337,-1.169356 -0.121032,-5.428145 0.0068,-6.740804 0.09984,-1.025149 0.09778,-1.03278 -0.279226,-1.03278 -0.208898,0 -0.592346,-0.0447 -0.852107,-0.09937 l -0.472296,-0.09937 v -4.59064 -4.590653 h 13.556143 13.55614 l -0.512697,0.556444 -0.512697,0.55644 0.747535,0.01231 c 0.41114,0.0068 1.018042,0.09798 1.348662,0.202831 0.583039,0.184855 0.613978,0.175219 1.027798,-0.320584 0.808855,-0.969082 -0.505663,-0.927845 29.580245,-0.927845 30.069657,0 28.771977,-0.04054 29.576847,0.923757 l 0.42326,0.507095 0.96642,-0.251839 0.96643,-0.251839 -0.81529,-0.49983 -0.8153,-0.49983 4.88468,-0.0034 4.88468,-0.0034 -0.0484,14.427763 c -0.0391,11.643237 -0.0872,14.499393 -0.24947,14.798931 -0.1106,0.204155 -0.43027,0.471906 -0.71038,0.595024 l -0.5093,0.223857 0.0883,2.982104 c 0.0795,2.685628 -0.0645,5.469428 -0.34361,6.639065 -0.0783,0.327963 -0.021,0.375545 0.56782,0.472032 1.31762,0.215915 1.1838,-0.71141 1.1838,8.203317 v 7.938827 l -32.7387,-0.0404 -32.738698,-0.0401 -0.264934,-0.71543 c -0.239044,-0.64551 -0.318408,-0.72024 -0.812161,-0.76471 -0.466643,-0.042 -0.573956,0.0123 -0.728683,0.36963 -0.308644,0.71259 -0.873372,0.88773 -3.351894,1.03952 -1.257904,0.077 -8.11898,0.1424 -15.246838,0.14526 l -12.959744,0.005 z m 27.483983,2.40186 c 0.510936,-0.0562 0.928976,-0.17245 0.928976,-0.2584 0,-0.0859 -0.31887,-0.94195 -0.708599,-1.90222 -0.773609,-1.906143 -0.687195,-1.824702 -2.389648,-2.252065 -3.418489,-0.858133 -5.94522,-4.572426 -7.569027,-11.126458 -0.699723,-2.824218 -0.957844,-5.035903 -1.120088,-9.597351 -0.143062,-4.022268 0.0081,-10.466961 0.303242,-12.917416 0.504608,-4.191432 1.950429,-8.907315 3.524375,-11.495582 l 0.550425,-0.905136 h -2.933054 -2.933053 l 0.153399,0.58446 c 0.08754,0.333522 0.129254,1.749918 0.09714,3.29891 -0.04552,2.196216 -0.106487,2.81258 -0.319283,3.228451 -0.33137,0.647578 -1.019878,1.039022 -1.579023,0.897739 -0.474299,-0.11984 -1.558958,-0.928513 -2.23053,-1.66298 -0.65735,-0.718906 -1.810466,-1.283458 -2.786522,-1.364246 -1.433025,-0.118608 -1.891681,0.368705 -2.432385,2.584364 -0.401527,1.645338 -0.431239,4.391188 -0.06249,5.773695 0.328791,1.232668 0.825751,1.718144 3.021237,2.951418 3.119023,1.752058 4.618391,3.097772 5.566777,4.996288 1.037821,2.077556 1.37735,4.102967 1.535072,9.157257 0.13193,4.227652 -0.08748,7.754658 -0.569245,9.150475 -1.189238,3.445637 -3.523918,5.91766 -6.131285,6.491976 -1.816015,0.400012 -3.921827,0.06695 -6.415754,-1.014759 -0.246006,-0.106695 -0.264484,0.08087 -0.264484,2.68451 v 2.79922 h 11.917414 c 6.554581,0 12.335455,-0.046 12.846389,-0.10214 z m 68.637006,-3.316012 c 0,-1.879981 -0.0419,-3.418147 -0.0931,-3.418147 -0.0512,0 -0.49014,0.38663 -0.97535,0.859177 -1.28541,1.25188 -1.92007,1.439828 -4.82573,1.429079 -2.90752,-0.01078 -3.57894,-0.223241 -6.00758,-1.901352 l -1.70026,-1.174817 v -5.436656 -5.436657 l 0.41341,0.385426 c 0.22738,0.211975 1.28554,1.263886 2.35147,2.337561 1.06593,1.073672 2.31798,2.217485 2.78233,2.541809 0.73993,0.51681 0.97799,0.596782 1.92639,0.647165 0.9977,0.05301 1.12031,0.0237 1.57161,-0.375791 1.02787,-0.909812 1.5273,-2.726441 1.53155,-5.570783 0.004,-2.954528 -0.44954,-4.563979 -1.58239,-5.610294 -0.30057,-0.277604 -1.10405,-0.799241 -1.78553,-1.159182 -5.96545,-3.150836 -7.25137,-6.115643 -7.01583,-16.175668 0.0974,-4.160947 0.29211,-5.222128 1.37682,-7.504833 0.53145,-1.118412 0.61901,-1.413219 0.44107,-1.485049 -0.24904,-0.100538 -5.48698,-0.125442 -5.48698,-0.02616 0,0.03494 0.23279,0.427405 0.51731,0.872161 0.65932,1.030634 1.09643,2.249477 1.48895,4.151795 0.26174,1.268537 0.31247,2.083044 0.31685,5.087478 0.005,3.117267 -0.0381,3.787212 -0.33146,5.211282 -0.39307,1.907899 -0.80087,3.123535 -1.31537,3.92108 l -0.36844,0.571112 0.66126,1.016021 c 0.78994,1.21377 1.21907,2.352666 1.65183,4.383945 0.28671,1.345723 0.32161,1.995533 0.32021,5.961882 -0.002,4.932555 -0.18002,6.545632 -0.9785,8.8526 -0.67718,1.956521 -1.85818,3.489121 -3.34439,4.34003 -1.31763,0.75439 -2.33282,0.87164 -7.57294,0.874657 l -4.7985,0.0027 V 74.931618 52.27646 h -0.982374 -0.98237 V 74.931618 97.58678 H 95.780239 92.908691 V 74.931618 52.27646 h -0.75567 -0.75567 l -0.0021,10.691645 c -0.0054,24.555602 -0.607944,29.35101 -4.191008,33.357652 -1.467094,1.640527 -2.322894,2.095077 -4.114126,2.185165 -4.174985,0.209973 -6.835869,-2.136604 -8.43933,-7.442468 -0.595408,-1.970199 -0.746142,-3.195781 -0.931989,-7.577598 -0.125318,-2.954664 -0.454105,-24.429473 -0.45661,-29.823289 l -6.34e-4,-1.391107 -2.304798,0.0023 c -2.346127,0.0023 -2.882871,0.107188 -2.573704,0.502148 0.09078,0.115961 0.504028,0.926272 0.918331,1.80068 2.351092,4.962113 3.204501,10.21365 3.204501,19.719218 0,9.460972 -1.232628,15.582288 -4.099206,20.356933 -0.322271,0.536785 -0.58595,1.06211 -0.58595,1.167386 0,0.16229 1.344194,3.662237 2.401468,6.252815 l 0.308203,0.75517 h 30.458781 30.45887 z M 44.19384,89.965094 c 0.661603,-0.424364 1.224033,-1.505591 1.505105,-2.893457 0.301651,-1.489466 0.205974,-5.039766 -0.170328,-6.320721 -0.352556,-1.200088 -1.391055,-2.228105 -3.527808,-3.492188 -0.940576,-0.556437 -2.214953,-1.433696 -2.831944,-1.949462 l -1.121804,-0.937761 v 6.338607 6.338604 l 1.246854,1.165613 c 1.739026,1.625711 1.69167,1.588583 2.332572,1.829026 0.855123,0.320815 1.999575,0.285946 2.567363,-0.07825 z m 18.982319,0.01601 c 1.392036,-0.96557 2.544006,-3.965863 3.092397,-8.054112 0.380858,-2.839269 0.373694,-12.781708 -0.01144,-15.888912 -0.712437,-5.747779 -2.107808,-8.83019 -3.99834,-8.832443 -1.081761,-0.0013 -1.790958,0.724287 -2.652261,2.713522 -1.224485,2.828026 -1.752774,6.339176 -1.868949,12.421579 -0.176923,9.262739 0.899248,15.042972 3.219608,17.292893 0.756889,0.733909 1.495207,0.849523 2.218996,0.347473 z m 20.148084,0.03713 c 1.342559,-0.670176 1.747504,-2.752542 2.024811,-10.412237 0.11789,-3.256103 0.45634,-23.023448 0.45634,-26.652135 V 52.27656 h -3.421745 -3.421747 l 0.103655,10.45317 c 0.169612,17.105514 0.387678,22.913886 0.938562,25.000169 0.561309,2.125768 1.856912,3.018739 3.320124,2.288335 z m 26.918107,-0.942165 c 0.9507,-0.655271 1.46523,-2.802862 1.46523,-6.115622 0,-2.613463 -0.21685,-4.015267 -0.81049,-5.239344 -0.48315,-0.99624 -0.7628,-1.119998 -2.53079,-1.119998 h -1.55328 v 6.462731 6.462732 l 1.5421,-0.106295 c 0.95985,-0.06615 1.67242,-0.196121 1.88723,-0.344192 z m 21.20551,-23.01337 v -5.768896 l -1.54912,-1.207001 c -1.97956,-1.542377 -2.62365,-1.881696 -3.57182,-1.881696 -0.58951,0 -0.85123,0.08952 -1.22252,0.418168 -1.19725,1.05974 -1.75822,3.47868 -1.48843,6.418126 0.2394,2.608246 0.45305,2.868486 4.17742,5.088513 0.94093,0.56087 2.0971,1.39497 2.56928,1.853556 0.47217,0.458584 0.9095,0.837019 0.97184,0.840959 0.0624,0.004 0.11335,-2.588836 0.11335,-5.761729 z m -21.91679,1.814715 c 0.7608,-0.415327 1.16941,-1.371819 1.38405,-3.239826 0.27128,-2.360993 -0.15318,-5.347489 -0.88012,-6.192465 -0.20526,-0.238602 -0.4933,-0.286132 -1.73406,-0.286132 h -1.48792 v 5.110307 5.110303 l 1.0952,-0.107064 c 0.60235,-0.05889 1.33264,-0.236694 1.62285,-0.39513 z M 43.307161,50.527788 h 0.399104 l -0.357262,-0.263229 c -0.252012,-0.185685 -0.426233,-0.217454 -0.591384,-0.107865 -0.345298,0.229121 -0.431843,0.606162 -0.109241,0.475936 0.14283,-0.05766 0.439281,-0.104817 0.658785,-0.104817 z"
       id="path8222" />
    <path
       style="fill:#782121;stroke:#000000;stroke-width:1.03405"
       d="m 34.902667,100.48839 c 0.06417,-6.266779 0.09644,-6.495847 1.011409,-7.181202 l 0.4705,-0.352424 v -1.545243 -1.54524 l -0.75567,-0.782966 -0.75567,-0.782963 0.0078,-6.444812 c 0.0091,-7.574542 0.182663,-12.539825 0.469846,-13.436945 0.120838,-0.377481 0.385502,-0.75885 0.655971,-0.945225 l 0.453401,-0.312433 V 63.215163 59.27139 l -0.52897,-0.09312 c -1.163071,-0.20474 -1.057937,0.316281 -1.057937,-5.243035 v -4.99727 H 49.185159 63.496966 L 62.9889,49.48932 c -0.545952,0.592531 -0.531522,0.61737 0.458629,0.789323 0.442743,0.0769 0.600598,0.02463 0.88475,-0.293705 0.745196,-0.83442 -0.209332,-0.80851 29.785538,-0.80851 29.987223,0 29.040583,-0.02555 29.784013,0.806808 0.32431,0.363139 0.89619,0.531149 0.89619,0.26329 0,-0.06726 -0.40807,-0.358269 -0.90681,-0.646697 -0.49874,-0.28844 -0.9068,-0.555338 -0.9068,-0.59314 0,-0.0378 2.62954,-0.06874 5.84342,-0.06874 h 5.84343 l -0.0987,14.507252 c -0.0612,8.994989 -0.15689,14.718682 -0.25178,15.063693 -0.0914,0.332445 -0.35064,0.701135 -0.64391,0.915864 l -0.49087,0.359421 -0.01,3.456186 c -0.005,1.900902 -0.0638,4.005519 -0.13009,4.67692 l -0.12049,1.220736 0.49299,0.05113 c 0.32965,0.0342 0.59808,0.199784 0.81019,0.499792 0.31083,0.439621 0.31816,0.610204 0.36389,8.465875 l 0.0467,8.017222 h -20.1602 c -11.08816,0 -25.993661,-0.0476 -33.123334,-0.10581 l -12.963046,-0.10581 -0.280801,-0.6891 c -0.32933,-0.80821 -0.61957,-0.87024 -1.123585,-0.24014 -0.197519,0.24695 -0.652196,0.54229 -1.010397,0.65637 -0.99757,0.31768 -7.190538,0.46638 -19.821894,0.47594 l -11.311655,0.009 z m 28.396055,4.5746 c 2.408841,-0.14853 3.092191,-0.31851 3.239207,-0.80577 0.111471,-0.36944 0.871782,-0.6856 1.309162,-0.54439 0.508801,0.16426 0.719859,0.37956 0.956748,0.97597 l 0.210257,0.52935 h 32.350384 32.35039 v -7.381378 c 0,-8.03721 0.0167,-7.881045 -0.84203,-7.881045 -0.20187,0 -0.49566,-0.135293 -0.65287,-0.300662 -0.25241,-0.265537 -0.26693,-0.390961 -0.12417,-1.073139 0.091,-0.435034 0.16637,-2.659531 0.17248,-5.092413 l 0.0109,-4.319943 0.61797,-0.315816 0.61797,-0.315813 0.0999,-2.9017 c 0.0549,-1.595934 0.0999,-8.041301 0.0999,-14.323035 V 49.891877 l -3.74057,0.0089 -3.74057,0.0089 0.42513,0.347646 0.42513,0.347649 -1.53782,0.401877 -1.53783,0.401877 -0.55309,-0.581818 c -0.5368,-0.564679 -0.59751,-0.585848 -2.06112,-0.718611 -1.95108,-0.176974 -52.577434,-0.179282 -54.52111,-0.0023 -1.379382,0.125473 -1.517825,0.170724 -2.106892,0.688424 -0.494938,0.434988 -0.713664,0.531915 -1.017318,0.450823 -0.212749,-0.05683 -1.055383,-0.142651 -1.872514,-0.190734 l -1.485694,-0.08743 0.495189,-0.537441 0.495185,-0.537438 -8.8332,0.0043 -8.833204,0.0043 0.528966,0.468397 c 0.290934,0.257627 0.596982,0.482425 0.680105,0.499575 0.08312,0.01724 -0.426955,0.07554 -1.133506,0.129752 -0.70655,0.05421 -1.364393,0.07234 -1.461872,0.0403 -0.272623,-0.08964 -0.36776,-0.500039 -0.194741,-0.840115 0.151711,-0.298199 0.0683,-0.306449 -3.09879,-0.306449 h -3.254717 v 4.213063 4.213064 l 0.566753,0.0023 c 1.025489,0.0043 0.985789,-0.190672 0.974281,4.787774 -0.01125,4.907463 0.04202,4.584843 -0.851393,5.146268 -0.509769,0.320338 -0.571218,1.330316 -0.643232,10.572409 l -0.07123,9.141554 0.768081,0.788941 0.76808,0.788944 v 1.922918 1.922925 l -0.656894,0.487063 c -0.845186,0.626686 -0.854446,0.699005 -0.854446,6.671106 v 4.66782 l 12.581904,-0.005 c 6.920048,-0.003 13.641599,-0.0703 14.936777,-0.15016 z"
       id="path8261" />
    <path
       style="fill:#e6e6e6;stroke:#000000;stroke-width:1.03405"
       d="m 36.384576,100.16394 c 0,-2.444782 0.04424,-4.677683 0.09828,-4.962004 0.07001,-0.368228 0.287402,-0.65717 0.75567,-1.004379 l 0.657386,-0.487433 v -2.265193 -2.265195 l -0.75567,-0.670287 -0.75567,-0.670283 0.0083,-6.771662 c 0.0047,-3.724414 0.0621,-7.964351 0.127722,-9.422083 l 0.119306,-2.650422 0.538115,-0.533867 c 0.710052,-0.704443 0.750027,-1.050781 0.69068,-5.983834 l -0.04846,-4.028351 -0.424045,-0.383444 c -0.233224,-0.210897 -0.556273,-0.383444 -0.717883,-0.383444 -0.282327,0 -0.293843,-0.140187 -0.293843,-3.577131 v -3.577131 h 2.569277 c 2.396581,0 2.569279,0.0197 2.569279,0.293335 0,0.161336 0.13546,0.422277 0.301005,0.579882 0.260704,0.248176 0.488343,0.274496 1.700259,0.19646 1.688179,-0.108666 1.928222,-0.19449 1.928222,-0.689234 v -0.380449 h 7.282705 7.282709 l -0.416464,0.457272 -0.416463,0.457272 0.803807,0.09417 c 0.442093,0.05181 1.619929,0.139141 2.617412,0.19412 l 1.813609,0.09995 0.680106,-0.531168 0.680101,-0.531173 6.876596,-0.104325 c 8.730355,-0.132461 33.055336,-0.13203 42.575736,6.65e-4 l 7.28595,0.101616 0.64859,0.666451 0.64858,0.666451 2.2322,-0.58341 c 1.58647,-0.41464 2.21085,-0.641923 2.1584,-0.785687 -0.0579,-0.158658 0.46279,-0.202278 2.41518,-0.202278 h 2.48897 l -6.4e-4,12.043005 c -3.2e-4,6.623655 -0.0445,12.84177 -0.0979,13.818031 l -0.0972,1.775025 -0.58218,0.276158 -0.58218,0.276158 -0.005,2.797813 c -0.003,1.538796 -0.0681,3.977653 -0.14462,5.419676 -0.15568,2.933974 -0.11317,3.124785 0.78072,3.505335 0.27659,0.117746 0.55286,0.289702 0.61393,0.382102 0.0611,0.09241 0.11207,3.226456 0.11335,6.964556 l 0.003,6.796554 h -31.87934 c -31.507765,0 -31.880184,-0.004 -31.972924,-0.31099 -0.0516,-0.17103 -0.299443,-0.49298 -0.550748,-0.71542 -0.356164,-0.31526 -0.623559,-0.40445 -1.212619,-0.40445 -0.648576,0 -0.82368,0.0718 -1.235258,0.50693 -0.310815,0.32855 -0.718875,0.55795 -1.159663,0.65191 -0.374058,0.0797 -6.988059,0.17959 -14.697783,0.22189 l -14.017679,0.0769 z m 27.311296,3.00059 c 0.266755,-0.10931 0.52403,-0.32805 0.571719,-0.48611 0.08463,-0.28047 -0.538699,-2.11869 -1.136172,-3.350652 -0.440801,-0.908919 -0.817495,-1.202648 -1.913885,-1.492357 -3.21308,-0.849018 -5.372113,-3.536509 -6.968852,-8.674604 -0.895537,-2.881703 -1.288567,-4.991119 -1.54708,-8.303215 -0.211436,-2.70895 -0.205682,-11.931415 0.0091,-14.556868 0.402409,-4.919432 1.793423,-9.790484 3.71554,-13.011066 0.448161,-0.750924 0.814842,-1.429137 0.814842,-1.507142 0,-0.07936 -1.67153,-0.14185 -3.794518,-0.14185 -3.444129,0 -3.785799,0.02401 -3.70006,0.25895 0.334673,0.91744 0.417331,1.873061 0.365294,4.22304 -0.05928,2.6772 -0.158072,3.145385 -0.731783,3.468376 -0.392203,0.22081 -0.920517,-0.0692 -2.065337,-1.133659 -1.247339,-1.159801 -2.495529,-1.748641 -3.749064,-1.768635 -1.151049,-0.01847 -1.612042,0.247375 -2.144398,1.236107 -1.063778,1.975739 -1.259442,6.788075 -0.352066,8.659055 0.399054,0.822837 1.09325,1.41595 2.897639,2.475698 3.310065,1.944063 4.590716,3.120746 5.478665,5.033887 1.087256,2.342554 1.357013,4.468332 1.357208,10.695263 1.65e-4,5.311488 -0.114767,6.156301 -1.133178,8.32906 -0.835072,1.781619 -2.367813,3.447684 -3.851973,4.187027 -0.983511,0.489942 -1.142784,0.520562 -2.70746,0.520519 -1.475702,-4.9e-5 -1.835448,-0.05963 -3.202149,-0.530271 -0.846821,-0.291611 -1.661236,-0.505593 -1.80981,-0.475493 -0.544517,0.110297 -0.651013,0.723825 -0.653335,3.76377 l -0.0021,2.91695 12.884177,-0.0685 c 9.817519,-0.0522 12.999613,-0.11584 13.369182,-0.26726 z m 68.328798,-3.422497 c -0.0463,-3.607475 -0.0586,-3.737802 -0.38157,-4.05408 -0.18356,-0.179744 -0.36451,-0.326784 -0.40213,-0.326784 -0.0376,0 -0.56754,0.430416 -1.17761,0.95648 -0.61006,0.526066 -1.34724,1.021211 -1.63818,1.100324 -0.96375,0.262059 -2.9275,0.346012 -4.35047,0.185963 -1.61525,-0.181684 -2.44376,-0.531682 -4.34572,-1.835826 l -1.27865,-0.87676 v -4.546694 -4.546693 l 1.77582,1.722435 c 1.96457,1.905513 2.7601,2.588861 3.43846,2.953607 0.5729,0.30804 2.01089,0.502569 2.64023,0.357164 1.05078,-0.242788 2.05625,-1.664362 2.40706,-3.403211 0.4441,-2.201363 0.33674,-5.484085 -0.23746,-7.260261 -0.35556,-1.099866 -1.59937,-2.348086 -3.22308,-3.234512 -5.64767,-3.083199 -6.837,-5.849456 -6.60218,-15.356027 0.10488,-4.245734 0.24104,-5.055241 1.23974,-7.370645 1.08255,-2.509778 1.02038,-2.561005 -3.11159,-2.564077 -2.30061,-0.0017 -2.36019,0.0068 -2.67051,0.382256 l -0.31741,0.384007 0.37204,0.689135 c 0.78394,1.452102 1.24068,2.650635 1.56522,4.107277 0.2944,1.321361 0.33773,1.967886 0.34634,5.166966 0.006,2.312725 -0.0595,4.03384 -0.17892,4.68299 -0.29552,1.60693 -0.86661,3.354438 -1.36795,4.185867 -0.25228,0.418383 -0.4587,0.833675 -0.4587,0.922876 0,0.08921 0.27805,0.592888 0.61787,1.119293 0.82317,1.275131 1.23547,2.297408 1.65878,4.112925 0.3277,1.405441 0.35183,1.825043 0.3475,6.041375 -0.005,4.843178 -0.13237,6.244456 -0.7381,8.117847 -1.03742,3.208543 -2.75508,4.898304 -5.33505,5.248382 -0.55519,0.07533 -2.89673,0.139326 -5.20342,0.142189 l -4.19397,0.0052 V 74.29584 51.640678 H 99.634156 98.047249 V 74.29584 96.951002 H 95.780239 93.51323 V 74.29584 51.640678 h -1.342101 -1.342096 l -0.08238,14.189288 c -0.0453,7.804105 -0.155901,15.262421 -0.245766,16.574036 -0.549937,8.026641 -1.379539,10.90333 -3.924662,13.608981 -1.476884,1.570032 -2.147279,1.891919 -3.94033,1.891919 -2.978582,0 -5.017524,-1.460278 -6.501505,-4.656335 C 75.204174,91.245147 74.682857,89.147604 74.477688,86.58272 74.28026,84.11461 74.055696,73.937497 73.921157,61.361231 l -0.104353,-9.754935 -2.658127,0.07126 c -1.461971,0.03919 -2.779035,0.126889 -2.926812,0.194889 -0.651328,0.299646 -0.600303,0.610346 0.483687,2.945244 2.302648,4.959877 2.995132,8.797999 3.1414,17.41136 0.138291,8.143676 -0.375338,12.925549 -1.877531,17.479815 -0.575635,1.745188 -0.919987,2.517235 -2.038754,4.570967 -0.893668,1.640514 -0.979706,1.077107 0.899539,5.890589 l 1.287935,3.29891 H 101.10032 132.0725 Z M 43.862301,90.732299 c 1.921053,-0.561024 2.884524,-3.668832 2.50071,-8.066383 -0.26885,-3.080336 -0.834918,-3.890333 -4.223007,-6.042806 -1.01322,-0.643702 -2.433646,-1.662097 -3.156505,-2.263096 -0.722855,-0.600996 -1.365291,-1.093814 -1.427634,-1.095144 -0.06235,-0.0013 -0.113352,3.164372 -0.113352,7.0349 v 7.037319 l 1.646261,1.49823 c 0.905442,0.824025 1.806579,1.564987 2.002524,1.646585 1.042947,0.434304 1.881729,0.510102 2.771003,0.250392 z M 63.27783,90.596267 c 1.486021,-0.797483 2.672824,-3.446267 3.440101,-7.677832 0.229606,-1.266271 0.26659,-2.463822 0.26876,-8.70209 0.0029,-7.851841 -0.0645,-8.816734 -0.842,-12.082753 -0.94626,-3.974948 -2.475568,-5.863133 -4.435495,-5.476352 -1.73404,0.342204 -3.441542,3.962271 -4.082859,8.656023 -0.331609,2.427033 -0.571917,8.122277 -0.462869,10.969869 0.285778,7.462481 1.274422,11.5688 3.280285,13.624609 1.028695,1.05431 1.802282,1.242245 2.834077,0.688526 z m 19.840244,0.14736 c 1.298946,-0.379491 1.950974,-1.534431 2.306777,-4.086002 0.425551,-3.051754 0.540183,-6.675297 0.922954,-29.174316 l 0.09941,-5.842649 H 82.40419 78.361167 l 0.101076,9.499269 c 0.183283,17.222962 0.4271,24.08682 0.940367,26.472452 0.300574,1.397061 0.981944,2.472143 1.863005,2.939512 0.753996,0.399965 1.038802,0.429447 1.852459,0.19175 z m 26.860366,-0.944372 c 1.673,-0.504731 2.38625,-2.981999 2.23662,-7.768258 -0.0905,-2.896372 -0.41788,-4.297315 -1.21826,-5.213878 -0.59692,-0.683554 -1.2066,-0.8432 -3.23919,-0.848174 l -1.54912,-0.0037 v 7.09867 7.09867 l 1.62767,-0.103986 c 0.89522,-0.0572 1.85924,-0.173865 2.14228,-0.259258 z m 21.79097,-17.594509 c 0.1656,-0.209789 0.21778,-1.469371 0.25878,-6.245801 l 0.0514,-5.983031 -1.71383,-1.287835 c -2.00983,-1.510264 -2.75713,-1.93123 -3.65921,-2.061293 -2.04192,-0.294412 -3.46879,1.749848 -3.67724,5.268318 -0.11282,1.904365 0.15179,3.916161 0.62739,4.769843 0.39389,0.707029 1.58867,1.645636 3.84009,3.016747 0.69465,0.423046 1.80605,1.222919 2.46978,1.777494 0.66372,0.554578 1.29423,1.008322 1.40111,1.008322 0.1069,0 0.28769,-0.118239 0.40177,-0.262767 z m -22.63435,-3.562438 c 0.93954,-0.250823 1.64104,-0.979697 2.00738,-2.085719 0.22899,-0.691352 0.28017,-1.325025 0.28017,-3.469087 0,-2.967131 -0.21845,-4.080898 -0.97516,-4.971887 l -0.43572,-0.513048 -1.90162,-0.05609 -1.90162,-0.05609 v 5.762705 5.762705 l 1.09571,-0.08863 c 0.60265,-0.04873 1.42654,-0.176942 1.83086,-0.284869 z"
       id="path8374" />
  </g>
</svg>
