<?xml version="1.0" encoding="UTF-8" standalone="no"?>
<!-- Created with Inkscape (http://www.inkscape.org/) -->

<svg
   width="210mm"
   height="297mm"
   viewBox="0 0 210 297"
   version="1.1"
   id="svg5"
   inkscape:version="1.1 (c68e22c387, 2021-05-23)"
   sodipodi:docname="SQUIBS.svg"
   xmlns:inkscape="http://www.inkscape.org/namespaces/inkscape"
   xmlns:sodipodi="http://sodipodi.sourceforge.net/DTD/sodipodi-0.dtd"
   xmlns="http://www.w3.org/2000/svg"
   xmlns:svg="http://www.w3.org/2000/svg">
  <sodipodi:namedview
     id="namedview7"
     pagecolor="#ffffff"
     bordercolor="#999999"
     borderopacity="1"
     inkscape:pageshadow="0"
     inkscape:pageopacity="0"
     inkscape:pagecheckerboard="0"
     inkscape:document-units="mm"
     showgrid="false"
     inkscape:zoom="2.096401"
     inkscape:cx="344.16126"
     inkscape:cy="290.73636"
     inkscape:window-width="1920"
     inkscape:window-height="1017"
     inkscape:window-x="-8"
     inkscape:window-y="-8"
     inkscape:window-maximized="1"
     inkscape:current-layer="layer1" />
  <defs
     id="defs2">
    <rect
       x="221.2659"
       y="334.59721"
       width="12.142641"
       height="89.046033"
       id="rect6595" />
    <rect
       x="225.31345"
       y="296.82011"
       width="269.83646"
       height="141.66414"
       id="rect2367" />
  </defs>
  <g
     inkscape:label="Layer 1"
     inkscape:groupmode="layer"
     id="layer1">
    <rect
       style="fill:#0000ff;fill-rule:evenodd;stroke-width:0.0696991"
       id="rect31"
       width="49.816174"
       height="17.450602"
       x="35.342548"
       y="49.175835" />
    <text
       xml:space="preserve"
       transform="matrix(0.34163347,0,0,0.50053078,-42.389012,-102.29186)"
       id="text2365"
       style="font-size:40px;line-height:1.25;font-family:sans-serif;word-spacing:0px;white-space:pre;shape-inside:url(#rect2367)"><tspan
         x="225.3125"
         y="332.21094"
         id="tspan8700">SQUIBS</tspan></text>
    <text
       xml:space="preserve"
       transform="scale(0.26458333)"
       id="text6593"
       style="line-height:1.25;font-family:sans-serif;font-size:40px;word-spacing:0px;white-space:pre;shape-inside:url(#rect6595)" />
    <path
       style="fill:#008080;stroke:#000000;stroke-width:1.19703"
       d="m 51.597119,65.217068 -0.883865,-1.409372 0.643619,-0.672222 c 1.452588,-1.517143 2.069038,-3.907773 1.887209,-7.318711 -0.0855,-1.603837 -0.253204,-2.597539 -0.575023,-3.407168 -0.518436,-1.304277 -1.411457,-2.480166 -2.192906,-2.887522 -0.527601,-0.275029 -0.331857,-0.27876 14.623846,-0.27876 15.104002,0 15.156622,0.0011 14.608436,0.286791 -0.302591,0.157735 -0.783578,0.634311 -1.068861,1.059056 -0.452873,0.674265 -0.519696,1.003978 -0.52658,2.598223 -0.01175,2.71776 0.558548,3.477958 3.234085,4.31106 1.609351,0.501116 2.158453,1.160295 2.158453,2.591155 0,1.575935 -0.764083,2.446693 -2.146958,2.446693 -0.934042,0 -1.487721,-0.185574 -2.537084,-0.85034 l -0.826597,-0.523642 v 1.123148 1.123148 l 0.920712,0.403784 c 0.77746,0.34096 1.152458,0.403783 2.410207,0.403783 1.347557,0 1.553888,-0.04088 2.165214,-0.42902 0.371644,-0.23596 0.868946,-0.761837 1.105118,-1.168612 l 0.429397,-0.739594 0.01149,2.373746 0.01149,2.373745 H 68.764747 52.480983 Z m 9.427839,-1.479669 c 1.626419,-1.077834 1.966984,-2.739364 1.975311,-9.637037 l 0.0057,-4.710973 H 62.26104 61.516123 l -0.11098,5.514395 c -0.119563,5.940845 -0.275709,6.839 -1.282944,7.379506 C 59.4106,62.665151 58.208672,62.568903 57.6679,62.086755 56.873732,61.37868 56.773791,60.663236 56.674709,54.976822 l -0.09736,-5.587433 h -0.77096 -0.770961 l 0.0943,5.806549 c 0.07318,4.505987 0.167285,5.986499 0.420152,6.60997 0.708134,1.745984 1.7566,2.483302 3.531256,2.483302 0.991533,0 1.200785,-0.0594 1.943818,-0.551811 z m 5.728231,-7.044176 v -7.303834 h -0.771488 -0.77149 v 7.303834 7.303834 h 0.77149 0.771488 z m 7.850124,7.025409 c 1.213601,-0.490421 1.720559,-1.439495 1.813113,-3.394333 0.09217,-1.946639 -0.293409,-3.153532 -1.213266,-3.797648 -0.39065,-0.273545 -0.474191,-0.417064 -0.28732,-0.4936 0.681077,-0.278952 1.16209,-1.44714 1.17185,-2.845966 0.01185,-1.695893 -0.359862,-2.643605 -1.294381,-3.300263 l -0.707917,-0.497433 h -2.453761 -2.45376 v 7.303834 7.303834 l 2.369575,-5.41e-4 c 1.938442,-4.33e-4 2.494441,-0.051 3.055867,-0.277879 z"
       id="path7799" />
    <path
       style="fill:#008080;stroke:#000000;stroke-width:1.19703"
       d="m 35.452759,64.996954 c 0,-1.555353 0.01792,-1.618739 0.393813,-1.3933 0.642101,0.385092 1.94953,0.685556 2.983108,0.685556 1.284233,0 2.286328,-0.461799 3.002354,-1.383588 0.529051,-0.681083 0.564132,-0.858215 0.564132,-2.848496 0,-2.968936 -0.51967,-3.712321 -3.226665,-4.615731 -1.221468,-0.407643 -1.60968,-0.61957 -1.858835,-1.014748 -0.657294,-1.042516 -0.181606,-3.086809 0.799217,-3.434676 0.896821,-0.318074 2.291314,-0.06524 3.163731,0.573614 0.230664,0.168909 0.503207,0.307108 0.605651,0.307108 0.102444,0 0.186261,-0.453686 0.186261,-1.008192 0,-0.977696 -0.02167,-1.017388 -0.716382,-1.312229 l -0.716383,-0.304038 3.276926,-0.0025 3.276927,-0.0025 -0.770513,0.565195 c -0.888302,0.651601 -1.602533,1.814317 -2.075569,3.378876 -0.446704,1.477468 -0.446704,5.534212 0,7.01168 0.757784,2.506365 2.097037,3.913314 3.881165,4.077348 0.912126,0.08386 0.948437,0.108877 1.576813,1.086311 0.353754,0.550261 0.643188,1.059703 0.643188,1.132094 0,0.07553 -3.193857,0.131621 -7.494469,0.131621 h -7.49447 z"
       id="path7838" />
    <path
       style="fill:#008080;stroke:#000000;stroke-width:1.19703"
       d="m 47.349439,62.09359 c -1.150943,-0.816509 -1.753772,-2.672794 -1.753772,-5.400367 0,-3.604862 1.156547,-5.843067 3.019287,-5.843067 1.973831,0 2.999597,1.993135 3.007132,5.843067 0.0049,2.475466 -0.298284,3.831331 -1.080749,4.834082 -0.868691,1.11325 -2.110379,1.333542 -3.191898,0.566285 z"
       id="path7877" />
    <path
       style="fill:#008080;stroke:#000000;stroke-width:1.19703"
       d="m 37.546804,62.366792 c -0.242469,-0.08834 -0.81282,-0.395485 -1.267448,-0.682549 l -0.826597,-0.521934 0.02256,-3.22056 c 0.01242,-1.771308 0.09501,-3.023357 0.18355,-2.782331 0.401986,1.094264 1.12947,1.651384 3.051932,2.337227 1.558667,0.556057 2.023678,0.982612 2.182428,2.001939 0.28697,1.842626 -0.542703,3.041829 -2.098578,3.033264 -0.44385,-0.0024 -1.005383,-0.07672 -1.247851,-0.165056 z"
       id="path7916" />
    <path
       style="fill:#008080;stroke:#000000;stroke-width:1.19703"
       d="m 35.468114,50.521483 -0.01536,-1.27817 h 1.002303 1.002302 L 36.80234,49.7911 c -0.360263,0.301284 -0.804391,0.87646 -0.98695,1.278172 l -0.331927,0.730383 z"
       id="path7955" />
    <path
       style="fill:#008080;stroke:#000000;stroke-width:1.19703"
       d="M 70.941276,53.260421 V 51.14231 h 1.317472 c 1.183641,0 1.356549,0.03952 1.702166,0.389084 0.482841,0.488352 0.675466,1.509644 0.463867,2.459411 -0.220277,0.988717 -0.908523,1.387728 -2.39367,1.387728 h -1.089835 z"
       id="path7994" />
    <path
       style="fill:#008080;stroke:#000000;stroke-width:1.19703"
       d="m 70.941276,59.687795 v -2.556342 h 1.322553 c 1.013859,0 1.422111,0.06598 1.749091,0.282669 1.203684,0.797685 1.203684,3.749662 0,4.547347 -0.32698,0.216691 -0.735232,0.282668 -1.749091,0.282668 h -1.322553 z"
       id="path8033" />
    <path
       style="fill:#008080;stroke:#000000;stroke-width:1.19703"
       d="m 84.661249,57.514052 c -0.357908,-0.886816 -1.160064,-1.460035 -2.882575,-2.059882 -1.66034,-0.578199 -1.973603,-0.831251 -2.163071,-1.747322 -0.197734,-0.956033 0.09117,-1.917238 0.726703,-2.417768 0.805075,-0.634059 1.884505,-0.607742 3.241742,0.07904 l 1.023612,0.517959 V 50.8547 c 0,-1.006841 -0.01704,-1.03826 -0.716383,-1.320835 l -0.716382,-0.289461 0.936808,-5.41e-4 0.936809,-5.41e-4 v 4.455338 c 0,2.450436 -0.02902,4.455339 -0.0645,4.455339 -0.03547,0 -0.180718,-0.287972 -0.322767,-0.639938 z"
       id="path8072" />
    <path
       style="fill:#008080;stroke:#000000;stroke-width:0.423213"
       d="m 34.783805,65.328005 c 1.36e-4,-1.938497 0.014,-1.997009 0.52292,-2.207594 l 0.250277,-0.10356 0.003,-0.570047 0.003,-0.570046 -0.389661,-0.254346 -0.389661,-0.254347 0.0046,-2.455122 c 0.0025,-1.350318 0.03163,-2.772732 0.06469,-3.160922 0.06647,-0.780442 0.153765,-0.940244 0.570172,-1.043807 0.230118,-0.05723 0.232556,-0.06184 0.183964,-0.347449 -0.06463,-0.379866 -0.06241,-1.763336 0.0035,-2.189754 0.05148,-0.33302 0.05042,-0.335499 -0.143983,-0.335499 -0.107718,0 -0.305443,-0.01452 -0.439389,-0.03228 l -0.243539,-0.03228 V 50.27968 48.788404 h 6.990221 6.99022 l -0.264372,0.180761 -0.264372,0.18076 0.385466,0.004 c 0.212004,0.0022 0.524953,0.03183 0.695437,0.06589 0.300644,0.06005 0.316598,0.05692 0.529984,-0.104142 0.417086,-0.314807 -0.260745,-0.301411 15.253045,-0.301411 15.505408,0 14.836257,-0.01317 15.251288,0.300083 l 0.218254,0.16473 0.498337,-0.08181 0.498338,-0.08181 -0.420405,-0.16237 -0.420405,-0.16237 2.518782,-0.0011 2.518782,-0.0011 -0.02495,4.686867 c -0.02014,3.782312 -0.04496,4.710136 -0.12864,4.807441 -0.05703,0.06632 -0.221867,0.153299 -0.366307,0.193294 l -0.26262,0.07272 0.04554,0.968738 c 0.04101,0.872428 -0.03328,1.776747 -0.177182,2.156704 -0.04035,0.106539 -0.01083,0.121996 0.292795,0.15334 0.679435,0.07014 0.610429,-0.231102 0.610429,2.664852 v 2.578931 L 68.869657,67.05827 51.98796,67.045241 51.851347,66.812835 c -0.123263,-0.209696 -0.164187,-0.233972 -0.418791,-0.248417 -0.240624,-0.01365 -0.29596,0.004 -0.375745,0.120075 -0.159152,0.231485 -0.450354,0.288378 -1.728403,0.337686 -0.648638,0.02502 -4.18655,0.04626 -7.862028,0.04719 l -6.682688,0.0017 z m 14.172108,0.780243 c 0.263464,-0.01825 0.479026,-0.05602 0.479026,-0.08394 0,-0.02792 -0.164425,-0.305992 -0.365389,-0.617938 -0.398911,-0.619211 -0.354352,-0.592755 -1.232221,-0.731584 -1.762743,-0.278765 -3.065651,-1.485355 -3.902967,-3.614436 -0.360812,-0.917449 -0.493912,-1.635916 -0.577573,-3.117705 -0.07377,-1.306636 0.0042,-3.400198 0.156367,-4.19623 0.260201,-1.361589 1.005738,-2.893546 1.817343,-3.734346 l 0.283826,-0.294034 h -1.512428 -1.512428 l 0.0791,0.189862 c 0.04514,0.108345 0.06665,0.568462 0.05009,1.071653 -0.02347,0.713442 -0.05491,0.913668 -0.164638,1.048764 -0.170871,0.210366 -0.5259,0.337527 -0.814223,0.291631 -0.244572,-0.03893 -0.803876,-0.301628 -1.150172,-0.54022 -0.338962,-0.233537 -0.933566,-0.416932 -1.436869,-0.443176 -0.738939,-0.03853 -0.975445,0.119774 -1.254259,0.839532 -0.207047,0.534489 -0.222368,1.42648 -0.03222,1.875588 0.169541,0.400433 0.425798,0.55814 1.5579,0.95877 1.608323,0.569157 2.381472,1.006313 2.870507,1.623047 0.535152,0.674895 0.71023,1.332851 0.791559,2.97474 0.06803,1.373355 -0.04511,2.519105 -0.293531,2.972537 -0.61323,1.119317 -1.817107,1.922355 -3.161595,2.108922 -0.936428,0.129944 -2.022289,0.02175 -3.308282,-0.329645 -0.126853,-0.03466 -0.136381,0.02627 -0.136381,0.872063 v 0.909329 h 6.145211 c 3.379868,0 6.360774,-0.01493 6.624237,-0.03318 z m 35.392654,-1.077207 c 0,-0.610713 -0.02161,-1.110387 -0.04803,-1.110387 -0.02642,0 -0.25274,0.125597 -0.502937,0.279104 -0.662824,0.406674 -0.990085,0.467729 -2.488386,0.464237 -1.499265,-0.0035 -1.845481,-0.07252 -3.097806,-0.617655 l -0.87674,-0.38164 v -1.766101 -1.766101 l 0.213175,0.125206 c 0.117247,0.06886 0.662886,0.410574 1.212534,0.759358 0.549647,0.348783 1.195264,0.720351 1.434705,0.825708 0.381549,0.167886 0.504303,0.193865 0.993344,0.210232 0.514463,0.01722 0.577687,0.0077 0.810402,-0.122076 0.53002,-0.295553 0.787553,-0.885686 0.789742,-1.809672 0.0023,-0.95978 -0.231806,-1.482611 -0.815958,-1.822507 -0.154988,-0.09018 -0.569306,-0.259634 -0.920709,-0.376561 -3.076084,-1.023551 -3.739167,-1.98667 -3.617709,-5.254675 0.05024,-1.351686 0.150624,-1.696411 0.709956,-2.437949 0.274044,-0.363317 0.319194,-0.459085 0.227439,-0.482419 -0.12842,-0.03266 -2.829361,-0.04075 -2.829361,-0.0085 0,0.01135 0.120038,0.138843 0.266751,0.283322 0.339978,0.334802 0.565375,0.730744 0.767776,1.348713 0.134967,0.412085 0.161124,0.676678 0.163384,1.65267 0.0024,1.012646 -0.01963,1.230278 -0.170917,1.692888 -0.202686,0.619782 -0.412969,1.014682 -0.678272,1.273765 l -0.189983,0.185526 0.340974,0.330055 c 0.407337,0.394294 0.628617,0.764265 0.851769,1.424127 0.14784,0.437159 0.165836,0.64825 0.165117,1.936721 -8.17e-4,1.602343 -0.09283,2.126352 -0.504564,2.875772 -0.349186,0.635577 -0.958173,1.133443 -1.724536,1.409861 -0.679436,0.245064 -1.202915,0.283153 -3.904983,0.284133 l -2.474347,8.66e-4 V 57.07752 49.717979 h -0.506559 -0.506559 v 7.359541 7.359542 H 65.956567 64.475854 V 57.07752 49.717979 h -0.389661 -0.389661 l -0.0011,3.473187 c -0.0028,7.976901 -0.313486,9.534692 -2.161092,10.836252 -0.756507,0.532926 -1.1978,0.680587 -2.121448,0.709852 -2.15283,0.06821 -3.524914,-0.694077 -4.351738,-2.41769 -0.307022,-0.64002 -0.384748,-1.038151 -0.48058,-2.461587 -0.06462,-0.959824 -0.234159,-7.935928 -0.235451,-9.688112 l -3.27e-4,-0.451902 -1.188468,7.58e-4 c -1.20978,7.58e-4 -1.486552,0.03482 -1.32713,0.163123 0.04681,0.03767 0.259902,0.3009 0.473537,0.584952 1.21234,1.611945 1.6524,3.31791 1.6524,6.405799 0,3.073402 -0.635604,5.061915 -2.113754,6.612961 -0.166179,0.174375 -0.302145,0.345027 -0.302145,0.379226 0,0.05272 0.693133,1.18968 1.238316,2.031229 l 0.158925,0.245317 H 68.642541 84.34865 Z M 39.356055,61.961153 c 0.341155,-0.137855 0.631172,-0.489092 0.776107,-0.939941 0.155546,-0.483854 0.10621,-1.637171 -0.08783,-2.05329 -0.181795,-0.389849 -0.717297,-0.723801 -1.819113,-1.134439 -0.485008,-0.180759 -1.14214,-0.465737 -1.460291,-0.633284 L 36.18647,56.895567 v 2.0591 2.059099 l 0.64294,0.37865 c 0.896728,0.528113 0.872309,0.516052 1.20279,0.59416 0.440944,0.104217 1.03108,0.09289 1.32386,-0.02542 z m 9.788227,0.0052 c 0.717803,-0.313666 1.311816,-1.288313 1.594594,-2.616383 0.196389,-0.922338 0.192695,-4.152145 -0.0059,-5.161522 -0.367368,-1.867169 -1.086891,-2.868492 -2.061743,-2.869224 -0.55781,-4.33e-4 -0.923507,0.235285 -1.367638,0.881489 -0.631405,0.918686 -0.903817,2.059285 -0.963723,4.035157 -0.09123,3.009006 0.463697,4.886718 1.66019,5.617606 0.39029,0.238411 0.771003,0.275968 1.144225,0.112877 z m 10.389354,0.01206 c 0.69229,-0.217707 0.9011,-0.894165 1.044093,-3.382421 0.06079,-1.057747 0.235312,-7.47918 0.235312,-8.657961 v -0.220022 h -1.764422 -1.764423 l 0.05345,3.395718 c 0.08746,5.556736 0.199906,7.443589 0.483969,8.121319 0.289439,0.690557 0.957516,0.980639 1.712021,0.743367 z M 73.413951,61.67235 c 0.490225,-0.212865 0.755546,-0.910511 0.755546,-1.986663 0,-0.848985 -0.111818,-1.304362 -0.417932,-1.702004 -0.249135,-0.323629 -0.393338,-0.363832 -1.305001,-0.363832 h -0.800946 v 2.099422 2.099422 l 0.795184,-0.03453 c 0.494943,-0.02149 0.86238,-0.06371 0.973149,-0.111811 z M 84.348567,54.196444 V 52.322415 L 83.549762,51.93032 c -1.020759,-0.501042 -1.352884,-0.61127 -1.841806,-0.61127 -0.30398,0 -0.438939,0.02908 -0.630394,0.135842 -0.61736,0.344257 -0.906627,1.130051 -0.767507,2.084932 0.123446,0.84729 0.233615,0.931829 2.154082,1.653006 0.485191,0.182199 1.081372,0.453157 1.324848,0.602129 0.243475,0.148971 0.468986,0.271906 0.501132,0.273186 0.03215,0.0013 0.05845,-0.840985 0.05845,-1.871701 z M 73.04718,54.785955 c 0.392307,-0.134919 0.603007,-0.445636 0.713685,-1.052459 0.139885,-0.76697 -0.07899,-1.737135 -0.453836,-2.011626 -0.105842,-0.07751 -0.25437,-0.09295 -0.894168,-0.09295 h -0.767243 v 1.660086 1.660085 l 0.564737,-0.03478 c 0.310605,-0.01913 0.687176,-0.07689 0.836825,-0.128358 z M 38.898839,49.149922 h 0.205798 l -0.184222,-0.08551 c -0.12995,-0.06032 -0.219787,-0.07064 -0.304947,-0.03504 -0.178053,0.07443 -0.22268,0.196912 -0.05633,0.154608 0.07365,-0.01873 0.226515,-0.03405 0.339702,-0.03405 z"
       id="path8222" />
    <path
       style="fill:#782121;stroke:#000000;stroke-width:0.423213"
       d="m 34.565064,65.379651 c 0.03309,-2.035766 0.04973,-2.110179 0.521533,-2.332817 l 0.242613,-0.114485 v -0.501973 -0.501972 l -0.389661,-0.254347 -0.389661,-0.254346 0.004,-2.093601 c 0.0047,-2.460594 0.09419,-4.073569 0.242276,-4.364999 0.06231,-0.122625 0.198784,-0.246513 0.338251,-0.307057 l 0.233796,-0.101494 v -1.281137 -1.281137 l -0.272763,-0.03025 c -0.599737,-0.06651 -0.545525,0.102744 -0.545525,-1.703203 v -1.623366 h 7.379882 7.379879 L 49.0477,48.812575 c -0.28152,0.192484 -0.274079,0.200553 0.236492,0.256412 0.2283,0.02498 0.309698,0.008 0.456221,-0.09541 0.38426,-0.271062 -0.107942,-0.262645 15.358904,-0.262645 15.462903,0 14.974768,-0.0083 15.358119,0.262092 0.16723,0.117966 0.462119,0.172544 0.462119,0.08553 0,-0.02185 -0.210417,-0.116384 -0.467594,-0.21008 -0.257177,-0.0937 -0.467593,-0.180402 -0.467593,-0.192682 0,-0.01228 1.355924,-0.02233 3.013161,-0.02233 h 3.013162 l -0.05092,4.712689 c -0.03157,2.922027 -0.0809,4.781372 -0.129831,4.893449 -0.04715,0.107995 -0.180809,0.227764 -0.332033,0.297519 l -0.253118,0.116758 -0.005,1.122744 c -0.0027,0.617509 -0.03291,1.301195 -0.06708,1.5193 l -0.06213,0.396557 0.254209,0.01661 c 0.169984,0.01111 0.3084,0.0649 0.417776,0.162358 0.160275,0.142811 0.164054,0.198225 0.187639,2.750144 l 0.02407,2.604397 H 75.59867 c -5.717607,0 -13.403625,-0.01547 -17.080039,-0.03437 L 51.83424,67.157245 51.689445,66.93339 c -0.169819,-0.262547 -0.319481,-0.282698 -0.579376,-0.07801 -0.101851,0.08022 -0.336305,0.176164 -0.521011,0.213221 -0.514397,0.103199 -3.707799,0.151504 -10.221154,0.15461 l -5.832852,0.0028 z m 14.642418,1.486062 c 1.242118,-0.04825 1.594487,-0.103467 1.670296,-0.261755 0.05748,-0.120011 0.449534,-0.222717 0.675069,-0.176846 0.262363,0.05336 0.371195,0.123302 0.493347,0.317044 l 0.108419,0.17196 H 68.836081 85.51755 v -2.397844 c 0,-2.610892 0.0086,-2.560162 -0.434195,-2.560162 -0.104094,0 -0.255587,-0.04395 -0.33665,-0.09767 -0.130159,-0.08626 -0.137643,-0.127004 -0.06403,-0.34861 0.04694,-0.141321 0.08579,-0.86395 0.08894,-1.654273 l 0.0056,-1.403336 0.318657,-0.102593 0.318656,-0.102592 0.05152,-0.942619 c 0.02834,-0.51844 0.05152,-2.612221 0.05152,-4.652846 v -3.710225 l -1.928822,0.0029 -1.928823,0.0029 0.219218,0.112933 0.219219,0.112934 -0.79298,0.13055 -0.79298,0.13055 -0.285201,-0.189004 c -0.276802,-0.183436 -0.308107,-0.190313 -1.062814,-0.233441 -1.006074,-0.05749 -27.111541,-0.05824 -28.113797,-7.58e-4 -0.711278,0.04076 -0.782666,0.05546 -1.086418,0.223635 -0.255215,0.141306 -0.368001,0.172793 -0.52458,0.14645 -0.109704,-0.01846 -0.544208,-0.04634 -0.965561,-0.06196 l -0.766098,-0.0284 0.255344,-0.174588 0.255342,-0.174587 -4.554837,0.0014 -4.554839,0.0014 0.272761,0.152159 c 0.15002,0.08369 0.307834,0.156716 0.350696,0.162287 0.04286,0.0056 -0.220159,0.02454 -0.584492,0.04215 -0.364332,0.01761 -0.703549,0.0235 -0.753814,0.01309 -0.140578,-0.02912 -0.189635,-0.162438 -0.100418,-0.272912 0.07823,-0.09687 0.03522,-0.09955 -1.59789,-0.09955 H 35.01749 v 1.368616 1.368616 l 0.292246,7.58e-4 c 0.528793,0.0014 0.508322,-0.06194 0.502388,1.555311 -0.0058,1.594192 0.02167,1.489389 -0.439021,1.671768 -0.262862,0.104062 -0.294548,0.432154 -0.331682,3.434453 l -0.03673,2.969639 0.396061,0.256288 0.39606,0.256289 v 0.624661 0.624663 l -0.338727,0.158223 c -0.43582,0.203579 -0.440595,0.227072 -0.440595,2.167111 v 1.516345 l 6.487855,-0.0016 c 3.568321,-8.66e-4 7.034287,-0.02284 7.702145,-0.04878 z"
       id="path8261" />
    <path
       style="fill:#e6e6e6;stroke:#000000;stroke-width:0.423213"
       d="m 35.32921,65.274253 c 0,-0.794188 0.02281,-1.519547 0.05068,-1.611909 0.0361,-0.119619 0.148199,-0.213482 0.389661,-0.326273 l 0.338981,-0.158343 v -0.735849 -0.73585 l -0.389661,-0.217743 -0.389661,-0.217742 0.0043,-2.199778 c 0.0024,-1.209878 0.03202,-2.587224 0.06586,-3.060769 l 0.06152,-0.860991 0.277479,-0.173427 c 0.366138,-0.228839 0.386751,-0.341347 0.356149,-1.943852 l -0.02499,-1.308612 -0.218659,-0.124562 c -0.120262,-0.06851 -0.286842,-0.124562 -0.370176,-0.124562 -0.145582,0 -0.15152,-0.04554 -0.15152,-1.162033 v -1.162033 h 1.324847 c 1.235796,0 1.324848,0.0064 1.324848,0.09529 0,0.05241 0.06985,0.137177 0.155213,0.188375 0.134432,0.08062 0.251814,0.08917 0.876738,0.06382 0.870509,-0.0353 0.994287,-0.06318 0.994287,-0.223898 v -0.123589 h 3.755325 3.755327 l -0.21475,0.148545 -0.214749,0.148545 0.414483,0.03059 c 0.227965,0.01683 0.835316,0.0452 1.349668,0.06306 l 0.935187,0.03247 0.350696,-0.17255 0.350694,-0.172552 3.545915,-0.03389 c 4.501805,-0.04303 17.044974,-0.04289 21.954168,2.16e-4 l 3.756997,0.03301 0.334444,0.216497 0.334443,0.216497 1.15103,-0.189521 c 0.818063,-0.134696 1.140023,-0.208529 1.112979,-0.255231 -0.02985,-0.05154 0.238638,-0.06571 1.245385,-0.06571 h 1.283437 l -3.27e-4,3.912177 c -1.64e-4,2.151698 -0.02292,4.171656 -0.05049,4.488795 l -0.05014,0.576618 -0.300203,0.08971 -0.3002,0.08971 -0.0028,0.908871 c -0.0016,0.499879 -0.03511,1.292143 -0.07457,1.760585 -0.08028,0.953103 -0.05836,1.015088 0.402576,1.13871 0.142623,0.03825 0.285082,0.09411 0.316571,0.124126 0.03149,0.03002 0.05779,1.048116 0.05845,2.26244 l 0.0013,2.207863 H 68.767378 c -16.246969,0 -16.439007,-0.0012 -16.486828,-0.101023 -0.02661,-0.05556 -0.154408,-0.160146 -0.283993,-0.232407 -0.183656,-0.102412 -0.321538,-0.131383 -0.625287,-0.131383 -0.334438,0 -0.42473,0.02334 -0.63696,0.164676 -0.160272,0.10673 -0.370688,0.181248 -0.59798,0.211773 -0.192883,0.0259 -3.603391,0.05834 -7.578908,0.07208 L 35.32921,66.7182 Z m 14.083062,0.974745 c 0.137552,-0.03551 0.270216,-0.106569 0.294807,-0.157915 0.04364,-0.09111 -0.27778,-0.688255 -0.585867,-1.08846 -0.227299,-0.295263 -0.421541,-0.390681 -0.986894,-0.484793 -1.656824,-0.275804 -2.770129,-1.148837 -3.593487,-2.81795 -0.461783,-0.936123 -0.664449,-1.621368 -0.797751,-2.697304 -0.109027,-0.880004 -0.10606,-3.875927 0.0047,-4.728807 0.207502,-1.59808 0.924778,-3.180444 1.915917,-4.226652 0.231094,-0.243938 0.420173,-0.464256 0.420173,-0.489596 0,-0.02578 -0.861924,-0.04608 -1.956642,-0.04608 -1.775964,0 -1.952146,0.0078 -1.907935,0.08412 0.172574,0.298031 0.215197,0.608465 0.188364,1.371857 -0.03057,0.86969 -0.08151,1.02178 -0.377344,1.126704 -0.202239,0.07173 -0.474664,-0.02248 -1.06499,-0.36827 -0.64319,-0.376762 -1.286819,-0.568047 -1.933204,-0.574542 -0.593538,-0.006 -0.831249,0.08036 -1.105758,0.40155 -0.548537,0.64182 -0.649431,2.20511 -0.181543,2.812899 0.205772,0.267299 0.563734,0.459972 1.494167,0.804232 1.706834,0.63153 2.367201,1.013776 2.825072,1.635261 0.560643,0.76098 0.699743,1.45154 0.699844,3.474362 8.5e-5,1.72544 -0.05918,1.999878 -0.584323,2.7057 -0.430605,0.57876 -1.220962,1.119982 -1.986269,1.360158 -0.507147,0.159158 -0.589276,0.169105 -1.396101,0.169091 -0.760945,-1.6e-5 -0.946448,-0.01937 -1.651187,-0.172259 -0.436663,-0.09473 -0.856616,-0.164242 -0.933228,-0.154464 -0.28078,0.03583 -0.335695,0.235135 -0.336892,1.222664 l -0.0011,0.947572 6.643722,-0.02226 c 5.062401,-0.01696 6.703247,-0.03763 6.893815,-0.08682 z m 35.233723,-1.111801 c -0.02387,-1.17189 -0.0302,-1.214227 -0.196755,-1.31697 -0.09465,-0.05839 -0.187959,-0.106156 -0.207357,-0.106156 -0.0194,0 -0.292652,0.139821 -0.607234,0.310713 -0.314579,0.170893 -0.694707,0.331741 -0.844726,0.357441 -0.496958,0.08513 -1.509564,0.112402 -2.243322,0.06041 -0.8329,-0.05902 -1.260125,-0.172717 -2.240868,-0.596369 L 77.646397,63.56145 v -1.476996 -1.476996 l 0.915704,0.559534 c 1.01303,0.619007 1.423242,0.840993 1.773037,0.959481 0.295416,0.100067 1.036916,0.16326 1.361434,0.116025 0.541838,-0.07887 1.060309,-0.540669 1.241199,-1.105535 0.229004,-0.715114 0.173642,-1.781508 -0.122443,-2.3585 -0.183345,-0.357292 -0.824715,-0.762777 -1.661982,-1.050733 -2.912219,-1.001579 -3.525494,-1.900199 -3.404409,-4.988414 0.05408,-1.379229 0.124288,-1.642198 0.63927,-2.394358 0.558214,-0.815303 0.526158,-0.831944 -1.604492,-0.832942 -1.18631,-5.42e-4 -1.217031,0.0022 -1.377049,0.124176 l -0.16367,0.124745 0.191843,0.223866 c 0.404239,0.471716 0.639758,0.86106 0.807106,1.334251 0.151806,0.429245 0.174151,0.639269 0.178587,1.678492 0.0032,0.75129 -0.0307,1.310395 -0.09226,1.521272 -0.152383,0.522012 -0.446866,1.089691 -0.705384,1.359781 -0.130087,0.135912 -0.236524,0.27082 -0.236524,0.299797 0,0.02898 0.143372,0.1926 0.318603,0.363603 0.424469,0.414227 0.637067,0.746314 0.855348,1.336086 0.168978,0.456558 0.181424,0.592866 0.179191,1.962544 -0.0026,1.573309 -0.06826,2.028515 -0.380604,2.637087 -0.534944,1.042297 -1.420654,1.591217 -2.751014,1.70494 -0.286288,0.02447 -1.493702,0.04526 -2.683143,0.04619 l -2.162619,0.0017 V 56.870987 49.511445 H 67.943838 67.12555 v 7.359542 7.359542 H 65.956567 64.787584 V 56.870987 49.511445 H 64.09553 63.403479 l -0.04248,4.609398 c -0.02336,2.535168 -0.08039,4.958006 -0.126729,5.384085 -0.283575,2.607459 -0.711359,3.541953 -2.023751,4.420885 -0.761555,0.510026 -1.107244,0.614591 -2.03183,0.614591 -1.535905,0 -2.587285,-0.474372 -3.352499,-1.512613 -0.479666,-0.650812 -0.748483,-1.3322 -0.854278,-2.165404 -0.101804,-0.801767 -0.2176,-4.107808 -0.286975,-8.193215 l -0.05381,-3.168896 -1.370662,0.02315 c -0.753865,0.01273 -1.433009,0.04122 -1.50921,0.06331 -0.335857,0.09734 -0.309546,0.198271 0.249413,0.956764 1.18736,1.611219 1.544439,2.858035 1.619862,5.65609 0.07131,2.645478 -0.193543,4.198872 -0.968148,5.678328 -0.296826,0.566925 -0.474391,0.817725 -1.051283,1.484881 -0.46082,0.532922 -0.505185,0.349899 0.463847,1.913559 l 0.664123,1.071653 H 68.699866 84.67066 Z M 39.185097,62.21038 c 0.99059,-0.182249 1.487404,-1.191822 1.28949,-2.620369 -0.138632,-1.000649 -0.430525,-1.263777 -2.177592,-1.963009 -0.522467,-0.209107 -1.254909,-0.539933 -1.627651,-0.735168 -0.37274,-0.195234 -0.704012,-0.355326 -0.736159,-0.355758 -0.03215,-4.33e-4 -0.05845,1.027948 -0.05845,2.285291 v 2.286077 l 0.848894,0.486701 c 0.466891,0.267685 0.931562,0.508387 1.032601,0.534894 0.537795,0.141084 0.970313,0.165707 1.428867,0.08134 z m 10.011612,-0.04419 c 0.766266,-0.259063 1.378241,-1.119522 1.773887,-2.494148 0.118396,-0.411349 0.137467,-0.800374 0.138586,-2.826879 0.0015,-2.550675 -0.03326,-2.864121 -0.434177,-3.925089 -0.487939,-1.291264 -1.276526,-1.904642 -2.287162,-1.778996 -0.894157,0.111165 -1.77463,1.287146 -2.105325,2.811914 -0.170994,0.788423 -0.294909,2.638526 -0.238678,3.563568 0.147361,2.424191 0.657155,3.758131 1.691478,4.425962 0.530446,0.342493 0.929346,0.403544 1.461391,0.223668 z m 10.230616,0.04787 c 0.669801,-0.123278 1.006019,-0.498461 1.189489,-1.32734 0.219435,-0.991364 0.278545,-2.168474 0.475921,-9.477293 l 0.05126,-1.897988 h -2.084784 -2.084784 l 0.05212,3.085843 c 0.09451,5.594889 0.220234,7.824617 0.4849,8.599591 0.154991,0.453836 0.506339,0.803077 0.960658,0.954902 0.388798,0.129929 0.535658,0.139506 0.95522,0.06229 z m 13.85054,-0.30678 c 0.86268,-0.163962 1.230468,-0.968704 1.153315,-2.523523 -0.04669,-0.940888 -0.215483,-1.395985 -0.6282,-1.693731 -0.307797,-0.222053 -0.622182,-0.273914 -1.670286,-0.27553 l -0.798805,-0.0012 v 2.306007 2.306007 l 0.839308,-0.03378 c 0.46162,-0.01858 0.958721,-0.05648 1.104668,-0.08422 z m 11.236507,-5.715586 c 0.08539,-0.06815 0.112299,-0.477326 0.133441,-2.028952 l 0.02648,-1.943591 -0.883738,-0.418354 c -1.03637,-0.49061 -1.421715,-0.627361 -1.886868,-0.669612 -1.052918,-0.09564 -1.788685,0.568439 -1.896168,1.711416 -0.05818,0.618634 0.07827,1.272167 0.323511,1.549486 0.203109,0.229679 0.819195,0.534586 1.980141,0.979992 0.358198,0.137427 0.931291,0.397266 1.273541,0.57742 0.342249,0.180155 0.667368,0.327554 0.722485,0.327554 0.05512,0 0.148343,-0.03841 0.207171,-0.08536 z m -11.671394,-1.15726 c 0.484473,-0.08148 0.846202,-0.318255 1.035103,-0.677547 0.11808,-0.224586 0.144468,-0.430435 0.144468,-1.126935 0,-0.963874 -0.112642,-1.325682 -0.502839,-1.61512 l -0.224681,-0.166664 -0.98057,-0.01822 -0.98057,-0.01822 v 1.872018 1.872018 l 0.565007,-0.02879 c 0.310755,-0.01583 0.735591,-0.05748 0.944082,-0.09254 z"
       id="path8374" />
  </g>
</svg>
